# xmcd
#
# Track frame offsets: 
#        151
#        18878
#        46227
#        65533
#        88786
#        108943
#        129370
#        157889
#        180799
#        197742
#        214210
#        241091
#        268829
#        297378
#        323498
#
# Disc length: 4317 seconds
#
# Revision: 0
# Processed by: cddbd v1.5.2PL0 Copyright (c) Steve Scherf et al.
# Submitted via: ExactAudioCopyFreeDBPlugin 1.0
#
DISCID=c510db0f
DTITLE=Сергей Дроздов - Невозможно Жить не любя
DYEAR=1900
DGENRE=Classic Rock
TTITLE0=Где-то Далеко
TTITLE1=Женщина
TTITLE2=Не провожай
TTITLE3=Забудь Меня
TTITLE4=Осень прошла
TTITLE5=Нет не надо
TTITLE6=Настанет День
TTITLE7=Давай не Ссориться
TTITLE8=Если Ты со Мной
TTITLE9=Горе, не беда
TTITLE10=Некому
TTITLE11=Сон
TTITLE12=Сыграй Сантана
TTITLE13=Мы- Молодые
TTITLE14=Скрытый Трек
EXTD=
EXTT0=
EXTT1=
EXTT2=
EXTT3=
EXTT4=
EXTT5=
EXTT6=
EXTT7=
EXTT8=
EXTT9=
EXTT10=
EXTT11=
EXTT12=
EXTT13=
EXTT14=
PLAYORDER=
